<svg width="120" height="120" viewBox="0 0 120 120" fill="none" xmlns="http://www.w3.org/2000/svg">
<path d="M79.7999 60.0037L116.923 22.8802C121.025 18.7784 121.025 12.1284 116.923 8.03306L111.974 3.08402C107.871 -1.01903 101.221 -1.01903 97.126 3.08402L60.0037 40.2063L22.8802 3.07633C18.7784 -1.02544 12.1284 -1.02544 8.03306 3.07633L3.07633 8.02536C-1.02544 12.1284 -1.02544 18.7784 3.07633 22.8738L40.2063 60.0037L3.08402 97.126C-1.01903 101.229 -1.01903 107.879 3.08402 111.974L8.03306 116.923C12.1348 121.025 18.7848 121.025 22.8802 116.923L60.0037 79.7999L97.126 116.923C101.229 121.025 107.879 121.025 111.974 116.923L116.923 111.974C121.025 107.871 121.025 101.221 116.923 97.126L79.7999 60.0037Z" fill="white"/>
</svg>
