<svg width="120" height="108" viewBox="0 0 120 108" fill="none" xmlns="http://www.w3.org/2000/svg">
<path d="M34.6884 82.9026C29.4456 82.6348 29.5444 75.2607 34.6881 75.0047C49.2587 75.0553 87.6899 75.0183 102.724 75.0288C106.836 75.0288 110.354 72.2305 111.279 68.2243L119.815 31.2576C120.304 29.141 119.811 26.9503 118.462 25.2476C117.113 23.5449 115.094 22.5546 112.922 22.5546C106.874 22.5546 55.5361 22.3222 29.2409 22.2174L25.0727 6.75145C24.0721 3.0555 20.6993 0.474365 16.8704 0.474365H3.51749C1.5749 0.474365 0 2.04926 0 3.99186C0 5.93445 1.5749 7.50935 3.51749 7.50935H16.8704C17.5295 7.50935 18.1099 7.95373 18.2814 8.58617L34.2895 67.9793C31.4748 68.0815 28.8531 69.2263 26.865 71.2435C24.7761 73.3634 23.6542 76.1694 23.706 79.145C23.8097 85.0959 28.7363 89.9373 34.6884 89.9373H39.8173C39.055 91.5376 38.627 93.3266 38.627 95.2138C38.627 102.003 44.1499 107.526 50.9387 107.526C57.7275 107.526 63.2504 102.003 63.2504 95.2138C63.2504 93.3263 62.8222 91.5376 62.0598 89.9373H84.2707C83.5091 91.5371 83.0811 93.3252 83.0811 95.212C83.0811 102.001 88.6043 107.524 95.3928 107.524C102.182 107.524 107.705 102 107.705 95.212C107.705 93.2518 107.242 91.3983 106.423 89.7516C107.815 89.2829 108.819 87.9699 108.819 86.4201C108.819 84.4775 107.244 82.9026 105.302 82.9026H34.6884ZM56.2152 95.2141C56.2152 98.1237 53.8481 100.491 50.9385 100.491C48.0288 100.491 45.6618 98.1237 45.6618 95.2141C45.6618 92.306 48.0265 89.9399 50.934 89.9376H50.9429C53.8505 89.9399 56.2152 92.306 56.2152 95.2141ZM95.393 100.489C92.4836 100.489 90.1163 98.1216 90.1163 95.2122C90.1163 92.3314 92.4374 89.9838 95.3074 89.9376H95.4788C98.3491 89.9838 100.67 92.3314 100.67 95.2122C100.67 98.1216 98.3027 100.489 95.393 100.489ZM112.948 29.6154C112.969 29.6417 112.965 29.6541 112.961 29.6742L109.364 45.2509H97.1837L99.2578 29.534L112.894 29.5889C112.915 29.5894 112.927 29.5894 112.948 29.6154ZM76.6835 67.9936V52.2859H89.1593L87.0863 67.9936H76.6835ZM59.2409 67.9936L57.1511 52.2859H69.6485V67.9936H59.2409ZM43.048 67.9936H43.037C42.1797 67.9933 41.4244 67.4151 41.2013 66.5913L37.3457 52.2859H50.0539L52.1438 67.9936H43.048ZM56.2149 45.2511L54.0995 29.3523L69.6482 29.4149V45.2511H56.2149ZM76.6835 45.2511V29.4433L92.1656 29.5056L90.0877 45.2511H76.6835ZM46.9986 29.3234L49.1178 45.2509H35.4495L31.1394 29.2594L46.9986 29.3234ZM102.724 67.9936H94.1821L96.255 52.2859H107.739L104.424 66.6412C104.24 67.4376 103.541 67.9936 102.724 67.9936Z" fill="#366878"/>
</svg>
