<svg width="46" height="46" viewBox="0 0 46 46" fill="none" xmlns="http://www.w3.org/2000/svg">
<g clip-path="url(#clip0)">
<path d="M45.9339 17.7226C45.7755 17.2347 45.3538 16.8791 44.8462 16.8054L30.586 14.7331L24.2085 1.81124C23.9815 1.35124 23.513 1.06006 23.0001 1.06006C22.4871 1.06006 22.0186 1.35124 21.7916 1.81124L15.4138 14.7331L1.15385 16.8054C0.646321 16.8791 0.224507 17.2347 0.066023 17.7225C-0.0925505 18.2104 0.0396989 18.746 0.407068 19.104L10.7254 29.1624L8.28993 43.3651C8.20314 43.8707 8.41104 44.3816 8.82602 44.6832C9.06078 44.8537 9.33885 44.9405 9.61826 44.9405C9.83281 44.9405 10.0481 44.8894 10.2452 44.7857L23 38.0799L35.7542 44.7856C36.2084 45.0243 36.7585 44.9846 37.1735 44.6831C37.5885 44.3816 37.7965 43.8705 37.7098 43.3649L35.2735 29.1624L45.593 19.1039C45.9603 18.746 46.0926 18.2104 45.9339 17.7226Z" fill="#C4C4C4"/>
</g>
<defs>
<clipPath id="clip0">
<rect width="46" height="46" fill="white"/>
</clipPath>
</defs>
</svg>
