<svg width="240" height="210" viewBox="0 0 240 210" fill="none" xmlns="http://www.w3.org/2000/svg">
<g clip-path="url(#clip0_339:1354)">
<path d="M40.4744 186.209C32.5898 190.46 29.2051 199.483 29.2051 199.483C29.2051 199.483 38.6039 201.614 46.4885 197.362C54.3731 193.111 57.7578 184.087 57.7578 184.087C57.7578 184.087 48.359 181.957 40.4744 186.209Z" fill="#F2F2F2"/>
<path d="M43.0691 189.131C38.4511 196.807 29.2786 199.763 29.2786 199.763C29.2786 199.763 27.5932 190.274 32.2112 182.599C36.8291 174.923 46.0017 171.967 46.0017 171.967C46.0017 171.967 47.6871 181.455 43.0691 189.131Z" fill="#F2F2F2"/>
<path d="M188.997 14.7695H161.021V31.334H188.997V14.7695Z" fill="#2F2E41"/>
<path d="M133.306 17.4407H118.883V12.411C118.883 10.4983 119.643 8.66399 120.995 7.31151C122.348 5.95903 124.182 5.19922 126.095 5.19922C128.007 5.19922 129.842 5.95903 131.194 7.31151C132.547 8.66399 133.306 10.4983 133.306 12.411V17.4407ZM119.202 17.1213H132.987V12.411C132.987 10.583 132.261 8.8299 130.968 7.53731C129.676 6.24472 127.923 5.51856 126.095 5.51856C124.267 5.51856 122.514 6.24472 121.221 7.53731C119.928 8.8299 119.202 10.583 119.202 12.411V17.1213Z" fill="#3F3D56"/>
<path d="M140.44 16.7488V14.7832L103.759 15.766L102.598 65.555L108.026 72.261L140.44 16.7488Z" fill="#3F3D56"/>
<path d="M146.932 16.0566L107.174 16.9614L108.025 72.2608L146.394 68.1252L146.932 16.0566Z" fill="#45BDE2"/>
<path d="M180.734 195.223H176.221L174.074 177.816H180.735L180.734 195.223Z" fill="#FFB6B6"/>
<path d="M181.885 199.597L167.334 199.597V199.413C167.334 197.911 167.931 196.47 168.993 195.408C170.055 194.346 171.496 193.749 172.998 193.749H172.998L181.885 193.749L181.885 199.597Z" fill="#2F2E41"/>
<path d="M164.169 195.223H159.657L157.51 177.816H164.17L164.169 195.223Z" fill="#FFB6B6"/>
<path d="M165.321 199.597L150.77 199.597V199.413C150.77 197.911 151.366 196.47 152.429 195.408C153.491 194.346 154.931 193.749 156.433 193.749H156.434L165.321 193.749L165.321 199.597Z" fill="#2F2E41"/>
<path d="M150.918 86.2305C150.918 86.2305 144.324 100.43 150.281 129.011C156.238 157.592 156.287 188.97 156.287 188.97L165.395 189.118L170.512 121.565L173.19 188.165H182.164L190.072 122.618C190.072 122.618 195.276 93.349 183.671 88.1086L150.918 86.2305Z" fill="#2F2E41"/>
<path d="M182.478 36.1196L162.536 34.2812C156.282 38.8396 152.772 47.0267 153.492 55.4739C154.469 66.9272 154.139 82.689 146.299 89.5364C146.299 89.5364 167.667 106.401 186.648 90.4014C186.648 90.4014 180.157 73.0133 184.614 66.0695C189.07 59.1257 190.678 39.6165 182.478 36.1196Z" fill="#E4E4E4"/>
<path d="M123.139 7.81909C123.078 8.39394 123.144 8.97522 123.332 9.52197C123.519 10.0687 123.825 10.5676 124.226 10.9836C124.628 11.3996 125.116 11.7224 125.655 11.9295C126.195 12.1365 126.774 12.2227 127.35 12.1819L153.682 36.7553L158.401 29.5664L131.034 7.67211C130.902 6.70789 130.42 5.82583 129.68 5.19308C128.941 4.56034 127.995 4.22085 127.021 4.23897C126.048 4.25709 125.116 4.63155 124.4 5.29138C123.685 5.95122 123.236 6.8506 123.139 7.81909Z" fill="#FFB6B6"/>
<path d="M148.764 32.9597L155.011 26.5431C155.189 26.3605 155.404 26.2184 155.641 26.1264C155.879 26.0344 156.133 25.9947 156.388 26.01C156.642 26.0253 156.89 26.0953 157.115 26.2151C157.34 26.3349 157.536 26.5018 157.691 26.7043L163.106 33.8022C164.035 34.7169 164.563 35.9625 164.575 37.266C164.587 38.5695 164.082 39.8245 163.17 40.7559C162.257 41.6873 161.013 42.219 159.71 42.2346C158.406 42.2501 157.15 41.7481 156.216 40.8387L148.997 35.6344C148.791 35.4854 148.619 35.2935 148.493 35.0719C148.367 34.8504 148.291 34.6043 148.268 34.3504C148.246 34.0966 148.279 33.841 148.365 33.601C148.45 33.361 148.587 33.1423 148.764 32.9597V32.9597Z" fill="#E4E4E4"/>
<path d="M220.962 67.6605C220.991 67.0831 220.894 66.5064 220.676 65.9709C220.458 65.4355 220.125 64.9543 219.701 64.5613C219.277 64.1683 218.772 63.873 218.222 63.6963C217.671 63.5195 217.089 63.4656 216.515 63.5384L188.86 40.4658L184.547 47.9058L213.088 68.2459C213.274 69.2012 213.804 70.0552 214.577 70.6459C215.351 71.2365 216.314 71.5229 217.285 71.4508C218.256 71.3786 219.166 70.9529 219.844 70.2544C220.522 69.5558 220.919 68.6329 220.962 67.6605Z" fill="#FFB6B6"/>
<path d="M193.982 43.9833L188.101 50.7371C187.934 50.9292 187.727 51.0831 187.495 51.1881C187.263 51.2932 187.011 51.3469 186.756 51.3458C186.501 51.3447 186.25 51.2886 186.019 51.1815C185.787 51.0743 185.582 50.9187 185.416 50.725L179.615 43.9389C178.637 43.0773 178.04 41.8629 177.956 40.562C177.871 39.2611 178.306 37.9798 179.165 36.9991C180.024 36.0185 181.237 35.4184 182.538 35.3305C183.838 35.2427 185.121 35.6742 186.104 36.5305L193.6 41.3257C193.815 41.463 193.997 41.645 194.135 41.8593C194.273 42.0735 194.363 42.315 194.4 42.5672C194.436 42.8194 194.417 43.0764 194.345 43.3208C194.273 43.5652 194.149 43.7912 193.982 43.9833Z" fill="#E4E4E4"/>
<path d="M223.773 77.4171H212.848V73.6073C212.848 72.1585 213.423 70.769 214.448 69.7445C215.472 68.7201 216.862 68.1445 218.31 68.1445C219.759 68.1445 221.149 68.7201 222.173 69.7445C223.198 70.769 223.773 72.1585 223.773 73.6073L223.773 77.4171ZM213.09 77.1752H223.531V73.6073C223.531 72.2226 222.981 70.8947 222.002 69.9156C221.023 68.9365 219.695 68.3864 218.31 68.3864C216.926 68.3864 215.598 68.9365 214.619 69.9156C213.64 70.8947 213.09 72.2226 213.09 73.6073V77.1752Z" fill="#3F3D56"/>
<path d="M229.176 76.8923V75.4033L201.391 76.148L200.512 113.861L204.624 118.941L229.176 76.8923Z" fill="#3F3D56"/>
<path d="M234.094 76.3691L203.979 77.0545L204.623 118.942L233.687 115.81L234.094 76.3691Z" fill="#45BDE2"/>
<path d="M173.906 30.9655C180.412 30.9655 185.685 25.6918 185.685 19.1864C185.685 12.6809 180.412 7.40723 173.906 7.40723C167.401 7.40723 162.127 12.6809 162.127 19.1864C162.127 25.6918 167.401 30.9655 173.906 30.9655Z" fill="#FFB6B6"/>
<path d="M168.483 13.9375C172.558 17.9307 179.649 18.3135 184.13 14.782C185.374 19.0715 185.51 23.6063 184.526 27.9627C183.542 32.3191 181.47 36.355 178.503 39.6934C180.995 40.594 183.865 40.0015 186.093 38.566C188.321 37.1305 189.971 34.9387 191.216 32.599C194.298 26.8071 195.07 19.7349 192.889 13.5469C190.709 7.35894 185.484 2.2278 179.137 0.566298C172.79 -1.0952 165.513 0.957165 161.272 5.96358C156.838 11.1987 156.119 18.8696 158.063 25.4494C160.006 32.0292 164.268 37.6797 168.951 42.6939C166.701 36.9101 165.21 30.8597 164.513 24.6932C164.275 22.5813 164.136 20.4044 164.732 18.3646C165.329 16.3248 166.797 14.4248 168.844 13.8517" fill="#2F2E41"/>
<path d="M239.631 200.292H99.3857C99.2881 200.292 99.1944 200.253 99.1254 200.184C99.0564 200.115 99.0176 200.021 99.0176 199.924C99.0176 199.826 99.0564 199.733 99.1254 199.663C99.1944 199.594 99.2881 199.556 99.3857 199.556H239.631C239.729 199.556 239.822 199.594 239.891 199.663C239.96 199.733 239.999 199.826 239.999 199.924C239.999 200.021 239.96 200.115 239.891 200.184C239.822 200.253 239.729 200.292 239.631 200.292Z" fill="#CACACA"/>
<path d="M60 200.292H0.368098C0.270472 200.292 0.176851 200.253 0.107819 200.184C0.038787 200.115 0 200.021 0 199.924C0 199.826 0.038787 199.733 0.107819 199.663C0.176851 199.594 0.270472 199.556 0.368098 199.556H60C60.0976 199.556 60.1912 199.594 60.2603 199.663C60.3293 199.733 60.3681 199.826 60.3681 199.924C60.3681 200.021 60.3293 200.115 60.2603 200.184C60.1912 200.253 60.0976 200.292 60 200.292Z" fill="#CACACA"/>
<path d="M217.883 168.337H206.957V164.527C206.957 163.078 207.533 161.689 208.557 160.664C209.582 159.64 210.971 159.064 212.42 159.064C213.869 159.064 215.258 159.64 216.283 160.664C217.307 161.689 217.883 163.078 217.883 164.527L217.883 168.337ZM207.199 168.095H217.641V164.527C217.641 163.143 217.091 161.815 216.111 160.835C215.132 159.856 213.804 159.306 212.42 159.306C211.035 159.306 209.707 159.856 208.728 160.835C207.749 161.815 207.199 163.143 207.199 164.527V168.095Z" fill="#CACACA"/>
<path d="M223.287 167.813V166.324L195.502 167.069L194.623 204.782L198.735 209.862L223.287 167.813Z" fill="#CACACA"/>
<path d="M228.205 167.289L198.09 167.974L198.735 209.862L227.798 206.73L228.205 167.289Z" fill="#E4E4E4"/>
</g>
<defs>
<clipPath id="clip0_339:1354">
<rect width="240" height="209.862" fill="white"/>
</clipPath>
</defs>
</svg>
